<svg width="11" height="11" viewBox="0 0 11 11" fill="none" xmlns="http://www.w3.org/2000/svg">
<path d="M2.93042 8.06812C-0.70068 4.43604 -0.526931 1.68923 1.13424 0.443508L1.50228 0.169356C1.59619 0.100258 1.70301 0.0507279 1.81642 0.0237051C1.92983 -0.00331763 2.04751 -0.00728268 2.16248 0.0120452C2.27744 0.031373 2.38736 0.0735999 2.4857 0.13622C2.58404 0.198841 2.6688 0.280579 2.73496 0.376585L3.66181 1.71036C3.78583 1.88887 3.83946 2.10694 3.81237 2.32262C3.78528 2.53829 3.67938 2.73632 3.51506 2.8786L2.62284 3.64998C2.39979 3.84312 2.29061 4.13606 2.39098 4.41373C2.57647 4.93034 3.02669 5.84203 4.09148 6.90635C5.15628 7.97126 6.06728 8.42153 6.58383 8.60762C6.86206 8.70742 7.15497 8.59882 7.34809 8.37515L8.11939 7.48401C8.26165 7.31967 8.45966 7.21376 8.67531 7.18667C8.89096 7.15957 9.10901 7.21321 9.2875 7.33725L10.6235 8.26479C10.7194 8.33074 10.8011 8.41528 10.8636 8.51341C10.9262 8.61154 10.9685 8.72124 10.9879 8.83602C11.0073 8.95079 11.0034 9.06828 10.9765 9.18153C10.9496 9.29477 10.9002 9.40146 10.8313 9.49525L10.5554 9.86685C9.31039 11.527 6.5627 11.7002 2.93042 8.06812Z" fill="#237FC1"/>
</svg>
