<svg width="11" height="11" viewBox="0 0 11 11" fill="none" xmlns="http://www.w3.org/2000/svg">
<path d="M0.355991 4.39958C0.157665 4.40541 -6.58744e-05 4.5679 2.06391e-08 4.76631L0.0042977 10.826L4.85925 7.21814L0.565145 4.4576C0.502878 4.4176 0.429966 4.39737 0.355991 4.39958ZM10.6246 4.39958C10.5579 4.40148 10.493 4.42155 10.4369 4.4576L6.14282 7.21814L11.0021 10.826V4.76631C11.0021 4.55951 10.8313 4.39354 10.6246 4.39958ZM5.18802 7.42944L0.42762 11.0008H10.5737L5.81262 7.43088L5.50104 7.63072L5.18802 7.42944Z" fill="#237FC1"/>
<path d="M5.49598 6.04089e-05C5.40992 0.00158515 5.32567 0.0319302 5.26176 0.0867304L0.626709 4.06137L5.501 7.1951L10.3753 4.06137L5.74095 0.0867304C5.66993 0.0258313 5.58205 -0.0014643 5.49598 6.04089e-05Z" fill="#237FC1"/>
</svg>
