<svg width="11" height="15" viewBox="0 0 11 15" fill="none" xmlns="http://www.w3.org/2000/svg">
<path d="M5.49756 0C2.46672 0 1.29965e-06 2.46861 0 5.50053C-1.89949e-06 10.8354 5.18807 14.8911 5.18807 14.8911C5.37033 15.0363 5.6287 15.0363 5.81095 14.8911C5.81095 14.8911 11 10.8354 11 5.50053C11 2.46861 8.52839 0 5.49756 0ZM5.49756 3.00127C6.87198 3.00127 7.99982 4.12562 7.99982 5.50053C7.99983 6.87547 6.87199 8.00273 5.49756 8.00273C4.12313 8.00273 2.99919 6.87547 2.9992 5.50053C2.99921 4.12562 4.12314 3.00127 5.49756 3.00127Z" fill="#237FC1"/>
</svg>
